<svg width="158" height="34" viewBox="0 0 158 34" fill="none" xmlns="http://www.w3.org/2000/svg">
<path d="M52.3722 19.5568H45.3161L44.0694 23.0973H40.3543L46.837 5.69378H50.8513L57.309 23.0973H53.5939L52.3722 19.5568ZM51.4247 16.8889L48.8317 9.45872L46.2386 16.8889H51.4247Z" fill="white"/>
<path d="M67.4595 9.10965C68.623 9.10965 69.6702 9.39223 70.6011 9.95739C71.5319 10.5225 72.255 11.3453 72.7703 12.4258C73.3022 13.4896 73.5681 14.7446 73.5681 16.1907C73.5681 17.6369 73.3022 18.9002 72.7703 19.9806C72.255 21.0444 71.5319 21.8589 70.6011 22.4241C69.6702 22.9893 68.623 23.2718 67.4595 23.2718C66.2959 23.2718 65.2986 22.9976 64.4674 22.449C63.653 21.8839 63.0712 21.1359 62.7221 20.205V29.6797H59.2065V9.28419H62.7221V12.1515C63.0712 11.2207 63.653 10.481 64.4674 9.93246C65.2986 9.38392 66.2959 9.10965 67.4595 9.10965ZM66.3624 12.1765C65.2986 12.1765 64.4176 12.5422 63.7194 13.2735C63.0379 13.9883 62.6972 14.9607 62.6972 16.1907C62.6972 17.4042 63.0379 18.3766 63.7194 19.1079C64.4176 19.8227 65.2986 20.1801 66.3624 20.1801C67.4595 20.1801 68.3404 19.831 69.0053 19.1329C69.6702 18.4181 70.0027 17.4374 70.0027 16.1907C70.0027 14.9441 69.6702 13.9634 69.0053 13.2486C68.3404 12.5338 67.4595 12.1765 66.3624 12.1765Z" fill="white"/>
<path d="M84.309 9.10965C85.4725 9.10965 86.5197 9.39223 87.4506 9.95739C88.3814 10.5225 89.1045 11.3453 89.6198 12.4258C90.1517 13.4896 90.4177 14.7446 90.4177 16.1907C90.4177 17.6369 90.1517 18.9002 89.6198 19.9806C89.1045 21.0444 88.3814 21.8589 87.4506 22.4241C86.5197 22.9893 85.4725 23.2718 84.309 23.2718C83.1454 23.2718 82.1481 22.9976 81.317 22.449C80.5025 21.8839 79.9207 21.1359 79.5716 20.205V29.6797H76.056V9.28419H79.5716V12.1515C79.9207 11.2207 80.5025 10.481 81.317 9.93246C82.1481 9.38392 83.1454 9.10965 84.309 9.10965ZM83.2119 12.1765C82.1481 12.1765 81.2671 12.5422 80.569 13.2735C79.8875 13.9883 79.5467 14.9607 79.5467 16.1907C79.5467 17.4042 79.8875 18.3766 80.569 19.1079C81.2671 19.8227 82.1481 20.1801 83.2119 20.1801C84.309 20.1801 85.19 19.831 85.8549 19.1329C86.5197 18.4181 86.8522 17.4374 86.8522 16.1907C86.8522 14.9441 86.5197 13.9634 85.8549 13.2486C85.19 12.5338 84.309 12.1765 83.2119 12.1765Z" fill="white"/>
<path d="M112.678 9.28419L108.963 23.0973H105.073L102.106 13.0491L99.0641 23.0973H95.1745L91.4843 9.28419H95L97.244 19.9557L100.311 9.28419H104.026L107.118 19.9557L109.387 9.28419H112.678Z" fill="white"/>
<path d="M114.031 5.31977C114.031 4.75462 114.231 4.2975 114.63 3.94844C115.028 3.58275 115.552 3.3999 116.2 3.3999C116.849 3.3999 117.372 3.58275 117.771 3.94844C118.17 4.2975 118.37 4.75462 118.37 5.31977C118.37 5.86831 118.17 6.32542 117.771 6.69111C117.372 7.04018 116.849 7.21471 116.2 7.21471C115.552 7.21471 115.028 7.04018 114.63 6.69111C114.231 6.32542 114.031 5.86831 114.031 5.31977ZM117.946 9.28419V23.0973H114.43V9.28419H117.946Z" fill="white"/>
<path d="M129.354 9.08472C130.95 9.08472 132.221 9.60832 133.169 10.6555C134.116 11.7027 134.59 13.1738 134.59 15.0687V23.0973H131.099V15.4677C131.099 14.3706 130.817 13.5229 130.252 12.9245C129.687 12.3094 128.914 12.0019 127.933 12.0019C126.936 12.0019 126.138 12.3261 125.539 12.9743C124.941 13.6226 124.642 14.5534 124.642 15.7669V23.0973H121.126V9.28419H124.642V12.0518C125.007 11.1209 125.606 10.3979 126.437 9.88259C127.285 9.35068 128.257 9.08472 129.354 9.08472Z" fill="white"/>
<path d="M143.094 9.10965C144.258 9.10965 145.247 9.38392 146.061 9.93246C146.892 10.481 147.491 11.2207 147.856 12.1515V4.64657H151.347V23.0973H147.856V20.205C147.491 21.1359 146.892 21.8839 146.061 22.449C145.247 22.9976 144.258 23.2718 143.094 23.2718C141.93 23.2718 140.883 22.9893 139.952 22.4241C139.022 21.8589 138.29 21.0444 137.758 19.9806C137.243 18.9002 136.985 17.6369 136.985 16.1907C136.985 14.7446 137.243 13.4896 137.758 12.4258C138.29 11.3453 139.022 10.5225 139.952 9.95739C140.883 9.39223 141.93 9.10965 143.094 9.10965ZM144.191 12.1765C143.094 12.1765 142.213 12.5338 141.548 13.2486C140.883 13.9634 140.551 14.9441 140.551 16.1907C140.551 17.4374 140.883 18.4181 141.548 19.1329C142.213 19.831 143.094 20.1801 144.191 20.1801C145.255 20.1801 146.128 19.8227 146.809 19.1079C147.507 18.3766 147.856 17.4042 147.856 16.1907C147.856 14.9607 147.507 13.9883 146.809 13.2735C146.128 12.5422 145.255 12.1765 144.191 12.1765Z" fill="white"/>
<path d="M157.45 19.4321V23.0973H153.66V19.4321H157.45Z" fill="white"/>
<path d="M29.0209 4.9792C25.8328 1.79107 21.5087 1.70198e-07 17 0C12.4914 -1.70198e-07 8.16733 1.79107 4.9792 4.9792C1.79107 8.16733 5.10595e-07 12.4914 0 17C-5.10595e-07 21.5087 1.79107 25.8328 4.9792 29.0209L29.0209 4.9792Z" fill="#8B5CF6"/>
<path opacity="0.5" d="M4.9792 4.979C1.79107 8.16713 2.23964e-07 12.4912 0 16.9999C-2.23964e-07 21.5085 1.79107 25.8326 4.9792 29.0207C8.16733 32.2088 12.4914 33.9999 17 33.9999C21.5087 33.9999 25.8328 32.2088 29.0209 29.0207L4.9792 4.979Z" fill="#8B5CF6"/>
</svg>
